<svg id="Layer_1" enable-background="new 0 0 511.449 511.449" height="25" viewBox="0 0 511.449 511.449" width="25" xmlns="http://www.w3.org/2000/svg"><path d="m255.725 234.058c-11.947 0-21.667 9.72-21.667 21.667s9.72 21.667 21.667 21.667 21.667-9.72 21.667-21.667-9.72-21.667-21.667-21.667z"/><path d="m436.508 74.941c-99.913-99.913-261.639-99.928-361.566 0-99.914 99.912-99.93 261.64 0 361.567 99.913 99.913 261.639 99.928 361.566 0 99.914-99.912 99.929-261.64 0-361.567zm-180.783 244.45c-35.106 0-63.667-28.561-63.667-63.667s28.561-63.667 63.667-63.667 63.667 28.561 63.667 63.667-28.561 63.667-63.667 63.667z"/></svg>