<svg id="Layer_1" enable-background="new 0 0 511.449 511.449" height="25" viewBox="0 0 511.449 511.449" width="25" xmlns="http://www.w3.org/2000/svg"><path d="m436.508 74.941c-99.912-99.914-261.639-99.93-361.566 0-99.914 99.912-99.93 261.639 0 361.566 99.912 99.914 261.639 99.93 361.566 0 99.914-99.911 99.929-261.638 0-361.566zm-266.116 74.451h170.666c11.598 0 21 9.402 21 21s-9.402 21-21 21h-170.666c-11.598 0-21-9.402-21-21s9.402-21 21-21zm64 212.666h-64c-11.598 0-21-9.402-21-21s9.402-21 21-21h64c11.598 0 21 9.402 21 21s-9.403 21-21 21zm-64-85.333c-11.598 0-21-9.402-21-21s9.402-21 21-21h106.666c11.598 0 21 9.402 21 21s-9.402 21-21 21zm242.783 9.724c-5.188 10.373-17.8 14.579-28.175 9.392l-12.275-6.138v51.354c0 23.343-18.99 42.334-42.333 42.334s-42.334-18.991-42.334-42.334c0-22.902 18.417-42.333 42.667-42.333v-43c0-15.603 16.453-25.75 30.392-18.783l42.667 21.333c10.372 5.187 14.577 17.801 9.391 28.175z"/></svg>